<!-- icon666.com - MILLIONS vector ICONS FREE --><svg id="Capa_1" enable-background="new 0 0 512 512" viewBox="0 0 512 512" xmlns="http://www.w3.org/2000/svg"><g><path d="m431.024 26.373c-16.597-17.007-38.896-26.373-62.79-26.373h-312.72v512h400.972v-422.445c0-23.918-9.042-46.357-25.462-63.182zm-4.705 58.794c-6.98-3.329-14.695-5.085-22.706-5.085h-29.064v-26.349c0-8.509-1.998-16.557-5.538-23.714 30.849.396 55.195 24.141 57.308 55.148zm.167 396.833h-340.972v-452h235.243c13.119 0 23.792 10.646 23.792 23.733v56.349h59.064c6.129 0 11.829 2.358 16.051 6.64 4.46 4.524 6.877 10.674 6.822 17.33z"></path><path d="m317.713 339.526c-15.534 0-29.465 6.954-38.874 17.902-6.504-4.466-14.369-7.087-22.837-7.087s-16.333 2.621-22.837 7.087c-9.409-10.948-23.34-17.902-38.874-17.902-28.267 0-51.263 22.997-51.263 51.264s22.997 51.263 51.263 51.263 51.263-22.996 51.263-51.263c0-5.761 4.687-10.448 10.448-10.448s10.448 4.688 10.448 10.448c0 28.267 22.997 51.263 51.263 51.263s51.263-22.996 51.263-51.263-22.996-51.264-51.263-51.264zm-123.422 72.527c-11.725 0-21.263-9.538-21.263-21.263s9.539-21.264 21.263-21.264 21.263 9.539 21.263 21.264-9.538 21.263-21.263 21.263zm123.422 0c-11.725 0-21.263-9.538-21.263-21.263s9.539-21.264 21.263-21.264 21.263 9.539 21.263 21.264-9.538 21.263-21.263 21.263z"></path><path d="m351.57 221.287h-5.931v-41.706c0-15.958-7.231-30.722-19.845-40.508l-.505-.392c-17.608-13.661-41.822-14.421-60.251-1.888l-10.244 6.966-11.082-7.321c-18.657-12.325-42.909-11.201-60.347 2.794-12.186 9.781-19.175 24.353-19.175 39.979v42.076h-3.756c-25.68 0-46.571 20.892-46.571 46.571v45.058h284.277v-45.058c.001-25.679-20.891-46.571-46.57-46.571zm-157.379-42.076c0-6.481 2.899-12.525 7.954-16.583 7.232-5.805 17.292-6.271 25.032-1.158l27.859 18.405 26.872-18.273c7.644-5.2 17.688-4.885 24.998.787l.505.392c5.153 3.998 8.229 10.278 8.229 16.801v41.301h-121.449zm173.95 103.705h-224.277v-15.058c0-9.138 7.434-16.571 16.571-16.571h191.135c9.138 0 16.571 7.434 16.571 16.571z"></path></g></svg>